<svg width="1024" height="1024" viewBox="0 0 1024 1024" fill="none" xmlns="http://www.w3.org/2000/svg">
<rect width="1024" height="1024" fill="white"/>
<path d="M362.668 454.591C405.841 421.153 427.938 370.026 414.883 321.304C401.828 272.583 357.128 239.354 303.02 231.982C273.828 259.373 261.403 308.746 274.824 358.833C288.245 408.92 323.691 445.466 362.668 454.591Z" fill="#C65F25"/>
<path d="M303.408 245.28C334.929 258.635 362.143 290.614 373.348 332.434C384.554 374.253 376.975 415.555 356.355 442.881C324.835 429.526 297.621 397.547 286.415 355.727C275.21 313.908 282.788 272.606 303.408 245.28Z" fill="#FFCB9B"/>
<path d="M633.727 448.155C687.835 440.784 732.535 407.555 745.59 358.833C758.645 310.111 736.548 258.984 693.375 225.546C654.398 234.671 618.952 271.217 605.531 321.304C592.11 371.391 604.535 420.765 633.727 448.155Z" fill="#C65F25"/>
<path d="M687.062 237.257C707.682 264.583 715.261 305.884 704.055 347.704C692.85 389.524 665.636 421.502 634.115 434.858C613.495 407.531 605.916 366.23 617.122 324.41C628.327 282.591 655.541 250.612 687.062 237.257Z" fill="#FFCB9B"/>
<path fill-rule="evenodd" clip-rule="evenodd" d="M807.146 619.69C793.588 448.878 666.553 315 511.843 315C356.97 315 229.83 449.16 216.498 620.231C216.216 620.659 215.936 621.088 215.657 621.519C215.221 628.949 215 636.445 215 644H215.664C274.682 746.025 384.992 814.667 511.333 814.667C637.675 814.667 747.984 746.025 807.002 644H808C808 637.899 807.856 631.835 807.57 625.814C807.575 625.82 807.579 625.827 807.583 625.833C807.568 625.585 807.552 625.337 807.536 625.089C807.449 623.333 807.351 621.581 807.24 619.833C807.209 619.785 807.177 619.738 807.146 619.69Z" fill="#C65F25"/>
<path fill-rule="evenodd" clip-rule="evenodd" d="M215 644H215.664C274.682 746.025 384.992 814.667 511.333 814.667C637.675 814.667 747.984 746.025 807.002 644H808C808 635.874 807.744 627.815 807.24 619.833C776.606 573.486 730.529 544 679 544C586.768 544 512 638.468 512 755C512 638.468 437.232 544 345 544C292.849 544 246.282 574.203 215.657 621.519C215.221 628.949 215 636.445 215 644ZM512 755C512 759.027 512.089 763.028 512.266 767H511.734C511.911 763.028 512 759.027 512 755Z" fill="#FFCB9B"/>
<path d="M678 666C685.18 666 691 656.374 691 644.5C691 632.626 685.18 623 678 623C675.27 623 672.737 624.391 670.645 626.769C673.8 628.168 676 631.327 676 635C676 639.971 671.971 644 667 644C666.315 644 665.648 643.924 665.007 643.779C665.002 644.018 665 644.259 665 644.5C665 656.374 670.82 666 678 666Z" fill="#382E2E"/>
<path d="M344 665C351.18 665 357 655.374 357 643.5C357 631.626 351.18 622 344 622C341.27 622 338.737 623.391 336.645 625.769C339.8 627.168 342 630.327 342 634C342 638.971 337.971 643 333 643C332.315 643 331.648 642.924 331.007 642.779C331.002 643.018 331 643.259 331 643.5C331 655.374 336.82 665 344 665Z" fill="#382E2E"/>
<ellipse cx="511.5" cy="741.5" rx="25.5" ry="17.5" fill="#382E2E"/>
</svg>
